<?xml version="1.0" encoding="utf-8"?>
<!-- Generator: Adobe Illustrator 19.1.0, SVG Export Plug-In . SVG Version: 6.00 Build 0)  -->
<svg version="1.1" id="Layer_1" xmlns="http://www.w3.org/2000/svg" xmlns:xlink="http://www.w3.org/1999/xlink" x="0px" y="0px"
	 viewBox="0 0 576 198.9" style="enable-background:new 0 0 576 198.9;" xml:space="preserve">
<style type="text/css">
	.st0{fill:none;stroke:#FFFFFF;stroke-miterlimit:10;}
	.st1{fill:#FFFFFF;stroke:#FFFFFF;stroke-miterlimit:10;}
	.st2{fill:#231F20;stroke:#FFFFFF;stroke-miterlimit:10;}
	.st3{fill:#231F20;}
</style>
<path class="st0" d="M216.1,98.9c0-0.9,0-1.8,0.1-2.7c-13.9,11.4-24,23.5-28,34.8c-3.3,9.2-2.3,17.1,2.9,22.8
	c10.2,11.2,35.3,13.6,66.2,6.5C233.1,150.4,216.1,126.6,216.1,98.9z"/>
<path class="st0" d="M349,98.9c0,6.7-1,13.3-2.9,19.4c15.3-12,26.5-25,30.9-37c3.3-9.2,2.3-17.1-2.9-22.8
	c-6.3-7-18.4-10.5-34.1-10.5c-4.3,0-9,0.3-13.8,0.8C340.1,61,349,78.9,349,98.9z"/>
<path class="st1" d="M260.6,160.6c6.9,2.4,14.2,3.8,21.9,3.8c28.3,0,52.5-18.1,61.6-43.3c-21.8,16.5-51.1,31.1-80.8,38.8
	C262.5,160.2,261.5,160.4,260.6,160.6z"/>
<path class="st2" d="M216.6,98.9c0-1,0-2.1,0.1-3.1c-0.2,0.1-0.3,0.3-0.5,0.4c0,0.9-0.1,1.8-0.1,2.7c0,27.7,17,51.5,41.2,61.4
	c0.3-0.1,0.6-0.1,0.8-0.2C233.8,150.5,216.6,126.7,216.6,98.9z"/>
<path class="st2" d="M348.5,98.9c0,6.9-1.1,13.6-3.1,19.9c0.2-0.2,0.5-0.4,0.7-0.5c1.9-6.1,2.9-12.7,2.9-19.4
	c0-20-8.9-37.9-22.9-50.1c-0.2,0-0.4,0.1-0.6,0.1C339.6,61,348.5,78.9,348.5,98.9z"/>
<path class="st2" d="M282.6,164.9c-8,0-15.7-1.4-22.8-4.1c-0.3,0.1-0.5,0.1-0.8,0.2c7.4,2.8,15.3,4.4,23.7,4.4
	c29.3,0,54.2-19,63-45.4c-0.2,0.2-0.5,0.4-0.7,0.5C335.9,146.4,311.4,164.9,282.6,164.9z"/>
<path class="st2" d="M282.6,33c15.9,0,30.5,5.6,41.9,15c0.2,0,0.4-0.1,0.6-0.1c-11.5-9.6-26.4-15.4-42.5-15.4
	c-35.3,0-64.3,27.7-66.3,62.5c0.2-0.1,0.4-0.3,0.5-0.4C219,60.2,247.6,33,282.6,33z"/>
<path class="st2" d="M217.1,98.9c0-1.2,0-2.4,0.1-3.5c-0.2,0.1-0.3,0.3-0.5,0.4c0,1-0.1,2.1-0.1,3.1c0,27.8,17.2,51.5,41.5,61.3
	c0.3-0.1,0.6-0.1,0.9-0.2C234.5,150.5,217.1,126.7,217.1,98.9z"/>
<path class="st2" d="M282.6,164.4c-7.7,0-15.1-1.3-21.9-3.8c-0.3,0.1-0.6,0.2-0.9,0.2c7.1,2.6,14.8,4.1,22.8,4.1
	c28.9,0,53.4-18.5,62.3-44.4c-0.2,0.2-0.5,0.4-0.7,0.6C335,146.3,310.9,164.4,282.6,164.4z"/>
<path class="st2" d="M282.6,33.5c15.6,0,29.9,5.5,41.1,14.6c0.2,0,0.5-0.1,0.7-0.1c-11.4-9.4-26-15-41.9-15
	c-34.9,0-63.5,27.2-65.8,61.5c0.2-0.1,0.4-0.3,0.5-0.4C219.8,60.3,248.1,33.5,282.6,33.5z"/>
<path class="st2" d="M325.5,48.9c-0.2,0-0.5,0.1-0.7,0.1c14.2,12,23.2,30,23.2,50c0,7.2-1.2,14.1-3.3,20.5c0.2-0.2,0.5-0.4,0.7-0.6
	c2-6.3,3.1-13,3.1-19.9C348.5,78.9,339.6,61,325.5,48.9z"/>
<path class="st2" d="M374.8,57.8c-8.4-9.2-26.6-12.7-49.7-9.9c0.3,0.3,0.7,0.6,1,0.9c4.8-0.5,9.5-0.8,13.8-0.8
	c15.7,0,27.8,3.6,34.1,10.5c5.2,5.8,6.3,13.6,2.9,22.8c-4.4,12-15.6,25-30.9,37c-0.2,0.6-0.4,1.1-0.5,1.7
	c16.1-12.4,27.8-25.9,32.4-38.4C381.4,72.1,380.3,63.9,374.8,57.8z"/>
<path class="st2" d="M191.1,153.8c-5.2-5.8-6.3-13.6-2.9-22.8c4.1-11.3,14.2-23.4,28-34.8c0-0.4,0-0.9,0.1-1.3
	c-14.4,11.7-24.8,24.1-29,35.7c-3.5,9.5-2.4,17.8,3.1,23.8c6.5,7.2,18.9,10.8,34.9,10.8c10,0,21.4-1.4,33.6-4.3
	c-0.5-0.2-1.1-0.4-1.6-0.6C226.3,167.4,201.3,165,191.1,153.8z"/>
<path class="st2" d="M259,160c0.5,0.2,1.1,0.4,1.6,0.6c0.9-0.2,1.8-0.4,2.8-0.7c29.6-7.7,58.9-22.3,80.8-38.8
	c0.2-0.5,0.4-1.1,0.6-1.7c-21.8,16.8-51.5,31.7-81.6,39.5C261.7,159.3,260.4,159.7,259,160z"/>
<path class="st2" d="M258.1,160.2c-0.3,0.1-0.6,0.1-0.8,0.2c0.5,0.2,1.1,0.4,1.6,0.6c0.3-0.1,0.5-0.1,0.8-0.2
	C259.2,160.6,258.6,160.4,258.1,160.2z"/>
<path class="st3" d="M345.4,118.9c-0.2,0.6-0.4,1.1-0.6,1.7c0.2-0.2,0.5-0.4,0.7-0.5c0.2-0.6,0.4-1.1,0.5-1.7
	C345.9,118.5,345.7,118.7,345.4,118.9z"/>
<path class="st2" d="M325.5,48.9c0.2,0,0.4-0.1,0.6-0.1c-0.3-0.3-0.7-0.6-1-0.9c-0.2,0-0.4,0.1-0.6,0.1
	C324.8,48.3,325.1,48.6,325.5,48.9z"/>
<path class="st2" d="M216.7,95.8c0-0.4,0.1-0.9,0.1-1.3c-0.2,0.1-0.4,0.3-0.5,0.4c0,0.4,0,0.9-0.1,1.3
	C216.3,96.1,216.5,96,216.7,95.8z"/>
<path class="st2" d="M344.1,121.1c0.2-0.2,0.5-0.4,0.7-0.6c0.2-0.6,0.4-1.1,0.6-1.7c-0.2,0.2-0.5,0.4-0.7,0.6
	C344.5,120,344.3,120.6,344.1,121.1z"/>
<path class="st2" d="M259,160c-0.3,0.1-0.6,0.1-0.9,0.2c0.5,0.2,1.1,0.4,1.6,0.6c0.3-0.1,0.6-0.1,0.9-0.2
	C260.1,160.4,259.5,160.2,259,160z"/>
<path class="st2" d="M324.8,49c0.2,0,0.5-0.1,0.7-0.1c-0.3-0.3-0.7-0.6-1-0.9c-0.2,0-0.5,0.1-0.7,0.1
	C324.1,48.4,324.4,48.7,324.8,49z"/>
<path class="st2" d="M217.3,94.1c-0.2,0.1-0.4,0.3-0.5,0.4c0,0.4-0.1,0.9-0.1,1.3c0.2-0.1,0.3-0.3,0.5-0.4
	C217.2,95,217.3,94.5,217.3,94.1z"/>
</svg>
